HIERARCHY
ROOT Hips
{
	OFFSET 0.000000 0.000000 0.000000 
	CHANNELS 6 Xposition Yposition Zposition Yrotation Zrotation Xrotation 
	JOINT Lumbar
	{
		OFFSET 0.000000 0.000000 0.000000 
		CHANNELS 3 Zrotation Xrotation Yrotation
		JOINT Neck
		{
			OFFSET 0.000000 0.445665 0.000000 
			CHANNELS 3 Zrotation Xrotation Yrotation
			End Site
			{
				OFFSET 0.000000 0.227535 0.000000 
			}
		}
		JOINT RightShoulder
		{
			OFFSET 0.019635 0.377685 0.194865 
			CHANNELS 3 Zrotation Xrotation Yrotation
			JOINT RightElbow
			{
				OFFSET 0.000000 -0.243375 0.000000 
				CHANNELS 2 Zrotation Yrotation
				JOINT RightWrist
				{
					OFFSET 0.000000 -0.264825 0.000000 
					CHANNELS 2 Zrotation Xrotation
					End Site
					{
						OFFSET 0.006600 -0.176220 0.000990 
					}
				}
			}
		}
		JOINT LeftShoulder
		{
			OFFSET 0.019635 0.377685 -0.194865 
			CHANNELS 3 Zrotation Xrotation Yrotation
			JOINT LeftElbow
			{
				OFFSET 0.000000 -0.243375 0.000000 
				CHANNELS 2 Zrotation Yrotation
				JOINT LeftWrist
				{
					OFFSET 0.000000 -0.264825 0.000000 
					CHANNELS 2 Zrotation Xrotation
					End Site
					{
						OFFSET 0.006600 -0.176220 -0.000990 
					}
				}
			}
		}
	}
	JOINT RightHip
	{
		OFFSET 0.052140 -0.069960 0.075570 
		CHANNELS 3 Zrotation Xrotation Yrotation
		JOINT RightKnee
		{
			OFFSET 0.000000 -0.402270 0.000000 
			CHANNELS 1 Zrotation
			JOINT RightAnkle
			{
				OFFSET 0.000000 -0.404085 0.000000 
				CHANNELS 3 Zrotation Xrotation Yrotation
				End Site
				{
					OFFSET 0.204105 -0.089430 0.008415 
				}
			}
		}
	}
	JOINT LeftHip
	{
		OFFSET 0.052140 -0.069960 -0.075570 
		CHANNELS 3 Zrotation Xrotation Yrotation
		JOINT LeftKnee
		{
			OFFSET 0.000000 -0.402270 0.000000 
			CHANNELS 1 Zrotation
			JOINT LeftAnkle
			{
				OFFSET 0.000000 -0.404085 0.000000 
				CHANNELS 3 Zrotation Xrotation Yrotation
				End Site
				{
					OFFSET 0.204105 -0.089430 -0.008415 
				}
			}
		}
	}
}
MOTION
Frames: 33
Frame Time: 0.02
1e-05 1e-05 0.00025 173.2665 -46.12884 -0.71114 55.98811 2.19242 2.77087 0.05063 -2.63286 -0.62981 116.56169 -73.99151 -87.14746 14.47115 71.17084 5.40566 -6.90317 107.52835 78.23466 87.14305 5.72834 -69.32895 1.82128 6.02965 49.53536 -3.58468 -4.09981 -18.77478 -7.37841 -3.3719 -3.90823 50.32397 6.98488 5.76542 -23.87471 -8.02226 3.6972 4.10005
-0.00017 -2e-05 0.00018 173.27237 -46.10192 -0.70796 56.02016 2.18861 2.77531 0.00289 -2.66075 -0.63079 116.97396 -74.02089 -87.14731 14.4275 71.1944 5.51154 -6.79289 108.59384 78.1283 87.14302 5.82434 -69.26123 1.87062 5.93468 49.48719 -3.63267 -4.40743 -18.77382 -7.35994 -3.34727 -3.89365 50.28217 7.0068 5.85344 -23.87583 -8.01003 3.68826 4.0952
-0.00036 -6e-05 0.00011 173.27821 -46.07506 -0.70479 56.05215 2.18482 2.77983 -0.0448 -2.68855 -0.63177 117.38527 -74.05022 -87.14717 14.38389 71.2179 5.61719 -6.68277 109.65614 78.02229 87.14297 5.91983 -69.19367 1.91976 5.83979 49.43913 -3.68056 -4.71443 -18.77287 -7.3415 -3.32268 -3.87909 50.24045 7.02871 5.9414 -23.87695 -7.99782 3.67933 4.09037
-0.00055 -9e-05 4e-05 173.28406 -46.04822 -0.70162 56.08411 2.18102 2.78428 -0.09241 -2.71637 -0.63275 117.79641 -74.07952 -87.14703 14.34036 71.24138 5.72278 -6.57278 110.71846 77.91626 87.14302 6.01549 -69.12616 1.96896 5.74507 49.3911 -3.7284 -5.02114 -18.77192 -7.32308 -3.29812 -3.86455 50.19877 7.05057 6.02919 -23.87806 -7.98562 3.67042 4.08554
-0.00073 -0.00013 -3e-05 173.28995 -46.02134 -0.69843 56.11612 2.17722 2.78861 -0.14001 -2.74428 -0.63372 118.20813 -74.10885 -87.14689 14.29682 71.26491 5.8285 -6.46276 111.78368 77.80989 87.14289 6.11176 -69.05847 2.0183 5.65036 49.34298 -3.77633 -5.32835 -18.77096 -7.30464 -3.27354 -3.84999 50.15703 7.07244 6.11694 -23.87918 -7.9734 3.66148 4.0807
-0.00092 -0.00016 -0.0001 173.29567 -45.9945 -0.69529 56.14806 2.17343 2.79352 -0.18789 -2.77183 -0.63471 118.61841 -74.13818 -87.14675 14.25304 71.28837 5.93399 -6.35248 112.8396 77.70466 87.14288 6.20562 -68.99119 2.067 5.5551 49.29504 -3.82414 -5.6349 -18.77004 -7.2862 -3.24892 -3.83545 50.11536 7.09444 6.20534 -23.88029 -7.96122 3.65257 4.07586
-0.00111 -0.0002 -0.00017 173.30172 -45.96762 -0.69207 56.18011 2.16964 2.79728 -0.23517 -2.80009 -0.63567 119.03183 -74.16748 -87.14661 14.20984 71.31193 6.03996 -6.24268 113.91375 77.59722 87.14323 6.30416 -68.9232 2.11707 5.46103 49.24679 -3.87213 -5.9424 -18.76903 -7.26778 -3.22442 -3.82089 50.07359 7.11613 6.29234 -23.88141 -7.94899 3.64363 4.07104
-0.00129 -0.00023 -0.00024 173.30748 -45.94077 -0.68892 56.21205 2.16583 2.80207 -0.28297 -2.82768 -0.63666 119.44107 -74.19683 -87.14647 14.16601 71.33542 6.14525 -6.13275 114.96983 77.49187 87.14214 6.39849 -68.85581 2.16566 5.36591 49.19882 -3.91996 -6.2491 -18.76811 -7.24934 -3.1998 -3.80634 50.03192 7.13812 6.38064 -23.88253 -7.93679 3.63471 4.06619
-0.00147 -0.00027 -0.00031 173.31281 -45.91397 -0.68587 56.24391 2.16204 2.80825 -0.33157 -2.85454 -0.63767 119.8505 -74.22617 -87.14634 14.12174 71.35873 6.2507 -6.02135 116.0093 77.38884 87.14365 6.48725 -68.78934 2.21333 5.26925 49.1512 -3.96758 -6.55468 -18.76727 -7.23088 -3.17504 -3.7918 49.99034 7.16046 6.4706 -23.88361 -7.92465 3.62582 4.06132
-0.00167 -0.0003 -0.00037 173.32041 -45.88692 -0.68229 56.27639 2.15826 2.80681 -0.37611 -2.88585 -0.63853 120.2748 -74.25533 -87.14618 14.08099 71.3828 6.35821 -5.91444 117.16083 77.27176 87.14332 6.6068 -68.71814 2.26893 5.18066 49.1016 -4.01636 -6.86632 -18.76589 -7.21253 -3.15111 -3.77719 49.94812 7.18073 6.55121 -23.8848 -7.91223 3.61679 4.05662
-0.00184 -0.00034 -0.00045 173.32337 -45.86037 -0.67978 56.30747 2.15439 2.82122 -0.42885 -2.90761 -0.6397 120.65748 -74.28504 -87.14607 14.03221 71.40543 6.45945 -5.80061 118.06529 77.18475 87.13851 6.66221 -68.65655 2.30611 5.0756 49.05617 -4.06273 -7.16538 -18.7657 -7.19397 -3.12543 -3.76274 49.90732 7.20537 6.65137 -23.88581 -7.90037 3.60804 4.05156
-0.00193 -0.00037 -0.00054 173.3121 -45.8353 -0.68058 56.33546 2.15103 2.88141 -0.50724 -2.90406 -0.64178 121.00301 -74.31376 -87.146 13.96569 71.42442 6.55986 -5.64806 118.36326 77.17713 87.15264 6.53328 -68.62508 2.30194 4.91724 49.02211 -4.10221 -7.42769 -18.76835 -7.17473 -3.09479 -3.7488 49.86985 7.24218 6.80655 -23.88609 -7.89024 3.60026 4.04557
-0.002 -0.00041 -0.00063 173.29646 -45.81065 -0.6824 56.36194 2.14749 2.95714 -0.59333 -2.89063 -0.64415 121.28823 -74.34272 -87.14593 13.89003 71.44303 6.65134 -5.49327 118.39331 77.19997 87.13076 6.34162 -68.60285 2.2747 4.74187 48.99221 -4.13927 -7.67755 -18.77225 -7.15531 -3.06243 -3.73503 49.83388 7.28323 6.98055 -23.88624 -7.88068 3.59277 4.03924
-0.00208 -0.00044 -0.00073 173.28381 -45.78583 -0.68347 56.38859 2.14349 3.02422 -0.67378 -2.88126 -0.64634 121.55618 -74.37422 -87.14595 13.81607 71.46018 6.73571 -5.35101 118.50765 77.21132 87.13779 6.18393 -68.57355 2.25562 4.5821 48.96051 -4.17768 -7.9349 -18.77585 -7.13601 -3.03095 -3.72114 49.79761 7.3224 7.14573 -23.8866 -7.87068 3.58498 4.03303
-0.00217 -0.00047 -0.00082 173.26691 -45.76123 -0.68566 56.41733 2.1416 3.09787 -0.76306 -2.87414 -0.64871 122.03011 -74.39776 -87.14579 13.75357 71.47961 6.86556 -5.15579 118.80665 77.21411 87.19761 6.0025 -68.55518 2.25805 4.39719 48.92862 -4.21522 -8.1855 -18.77834 -7.11651 -2.99901 -3.70738 49.75985 7.36187 7.31436 -23.88628 -7.86128 3.57773 4.02687
-0.00222 -0.00052 -0.00092 173.25783 -45.73592 -0.68588 56.44146 2.1355 3.16169 -0.83605 -2.85941 -0.65081 122.03879 -74.43389 -87.14577 13.66364 71.49996 6.90064 -5.07581 118.62363 77.24029 87.00623 5.85635 -68.51774 2.19548 4.25041 48.89788 -4.25377 -8.44593 -18.78341 -7.09744 -2.96768 -3.69344 49.72542 7.40112 7.47743 -23.88737 -7.85096 3.56962 4.02065
-0.00222 -0.00061 -0.00107 173.27194 -45.71117 -0.67915 56.45193 2.11559 3.19306 -0.85875 -2.83134 -0.65193 120.9648 -74.53564 -87.14615 13.51146 71.46476 6.66074 -5.26437 117.47148 77.3317 87.31123 5.82124 -68.41264 2.0875 4.30588 48.87109 -4.29785 -8.74795 -18.79559 -7.07923 -2.93778 -3.67856 49.7009 7.44378 7.6458 -23.8924 -7.83611 3.55739 4.01329
-0.00219 -0.00072 -0.00124 173.29429 -45.68507 -0.67049 56.45777 2.09173 3.21429 -0.86461 -2.79502 -0.65281 119.38986 -74.64178 -87.14531 13.32945 71.43508 6.33024 -5.57576 115.79232 77.43991 87.1762 5.82698 -68.2904 1.89258 4.38664 48.84493 -4.34273 -9.05837 -18.81034 -7.06155 -2.90868 -3.66358 49.67946 7.48518 7.80391 -23.89888 -7.82061 3.54454 4.00604
-0.00216 -0.00081 -0.00139 173.31215 -45.65802 -0.66372 56.46689 2.07133 3.24113 -0.88148 -2.75896 -0.6539 117.92127 -74.72882 -87.14674 13.15426 71.449 6.0494 -5.8672 114.15499 77.5404 86.42726 5.81155 -68.18441 1.65118 4.39032 48.81734 -4.38568 -9.3572 -18.82362 -7.04391 -2.87965 -3.64892 49.65593 7.52372 7.94929 -23.90461 -7.80668 3.53315 3.99948
-0.00217 -0.00092 -0.00157 173.33175 -45.63813 -0.65333 56.47207 2.04449 3.26422 -0.88783 -2.73712 -0.65456 116.96213 -74.89835 -87.14652 13.00898 71.29401 5.72603 -6.01789 113.32605 77.65945 88.98139 5.79324 -68.04312 1.76527 4.65527 48.79488 -4.43469 -9.68753 -18.83792 -7.02511 -2.84871 -3.63308 49.63547 7.57662 8.1659 -23.91054 -7.7876 3.51703 3.98994
-0.00208 -0.00101 -0.00169 173.35128 -45.60235 -0.64926 56.48305 2.0294 3.29257 -0.90775 -2.68407 -0.65606 114.82444 -74.88424 -87.14243 12.79219 71.45985 5.47786 -6.47742 110.71279 77.72197 84.71697 5.80609 -67.97104 1.12704 4.40113 48.76161 -4.47191 -9.95548 -18.85105 -7.00882 -2.82198 -3.61967 49.60918 7.59963 8.23507 -23.91663 -7.7788 3.51029 3.98645
-0.00171 -0.00099 -0.00164 173.35548 -45.52851 -0.66942 56.52192 2.05365 3.33685 -1.00401 -2.54526 -0.65989 109.55256 -74.46879 -87.15511 12.40598 72.80569 5.37324 -7.87637 103.12503 77.80525 60.29744 5.76984 -68.1008 -1.64155 2.54359 48.7002 -4.47104 -10.03953 -18.85724 -6.99954 -2.80661 -3.61302 49.5674 7.5371 7.86907 -23.92089 -7.80111 3.53224 4.00136
-0.00122 -0.00096 -0.00153 173.36189 -45.43775 -0.69484 56.56443 2.08865 3.38658 -1.1069 -2.37604 -0.66465 103.11625 -73.84632 -87.13605 11.9462 74.43208 5.35128 -9.56058 93.79768 77.7956 29.29039 5.787 -68.30321 -5.15095 0.19211 48.62752 -4.45921 -10.06206 -18.86267 -6.99274 -2.79551 -3.60882 49.51939 7.44523 7.36099 -23.92559 -7.83332 3.5631 4.02203
-0.00077 -0.00095 -0.00144 173.37575 -45.35108 -0.71371 56.5987 2.11494 3.43484 -1.18534 -2.22142 -0.66887 97.21038 -73.25123 -87.1427 11.50498 75.71979 5.36369 -11.0371 85.37913 77.71158 2.25105 5.86238 -68.46334 -8.27157 -1.82402 48.55875 -4.45603 -10.11946 -18.87054 -6.98464 -2.78246 -3.60345 49.4733 7.36879 6.93753 -23.93139 -7.85935 3.58823 4.03899
-0.0004 -0.00088 -0.00136 173.35373 -45.27937 -0.75003 56.66206 2.15761 3.47981 -1.35823 -2.06177 -0.6732 91.26695 -72.94654 -87.19535 11.12052 77.84583 5.1197 -12.84551 76.42788 78.12663 -28.88022 5.59177 -68.64687 -11.61254 -4.3019 48.49513 -4.43775 -10.14915 -18.86992 -6.97721 -2.76935 -3.59822 49.43109 7.28301 6.42778 -23.93191 -7.89249 3.62068 4.06064
0.00017 -0.00094 -0.00126 173.40744 -45.17275 -0.75133 56.66391 2.1683 3.5314 -1.33052 -1.90728 -0.678 85.15024 -71.97694 -87.02715 10.60702 78.35931 5.36728 -14.03118 68.19876 77.47216 -53.09164 6.05282 -68.81811 -14.67276 -5.94253 48.41806 -4.44784 -10.22034 -18.88643 -6.96909 -2.75753 -3.59337 49.37939 7.21031 6.06578 -23.94333 -7.91312 3.63971 4.07378
0.00127 -0.00138 -0.00107 173.66445 -44.97182 -0.65438 56.51111 2.09235 3.61471 -0.7959 -1.75917 -0.67981 78.68442 -69.31561 -87.2961 9.70742 73.76418 7.51303 -13.40726 62.23185 73.95328 -56.18972 8.53456 -68.77499 -16.73908 -5.0897 48.30709 -4.54272 -10.43372 -18.95337 -6.95744 -2.74692 -3.58826 49.30206 7.17588 6.13197 -23.98633 -7.89759 3.62191 4.0632
0.00258 -0.00195 -0.00087 173.99821 -44.73689 -0.52224 56.29342 1.98325 3.70218 -0.05049 -1.62019 -0.68278 72.1165 -65.97611 -87.17371 8.69349 67.6377 10.05927 -12.15093 57.08414 69.34982 -52.16365 11.74993 -68.74712 -18.49857 -3.38804 48.18307 -4.66567 -10.6884 -19.03702 -6.94522 -2.73772 -3.58357 49.21565 7.15656 6.35409 -24.03996 -7.86904 3.58989 4.04368
0.0038 -0.00245 -0.00069 174.30069 -44.51865 -0.40619 56.09473 1.88626 3.7776 0.63062 -1.4871 -0.68793 65.69914 -62.88395 -86.5186 7.75839 62.60803 12.03829 -11.19549 51.66686 65.19815 -51.66009 14.61813 -68.81944 -20.42932 -2.11568 48.06443 -4.77344 -10.91615 -19.11107 -6.93389 -2.72875 -3.57912 49.13385 7.13363 6.51494 -24.0877 -7.84587 3.56272 4.02746
0.005 -0.00302 -0.00045 174.58947 -44.29391 -0.28922 55.93993 1.8013 3.89442 1.17985 -1.31057 -0.68183 58.79884 -60.036 -88.76418 6.69112 55.9303 15.59336 -10.18906 45.75344 61.21264 -50.20038 17.53882 -68.44344 -22.27328 -0.67925 47.94686 -4.89162 -11.17703 -19.19351 -6.91991 -2.71626 -3.57292 49.04935 7.09594 6.63209 -24.13999 -7.8251 3.54246 4.01456
0.00628 -0.00346 -0.00033 174.92321 -44.07571 -0.16658 55.6789 1.68431 3.92801 2.05228 -1.22706 -0.69921 52.89822 -56.52797 -84.99859 5.89319 52.27452 16.0264 -9.14003 41.09246 56.62989 -48.9338 20.53317 -69.00214 -24.18831 0.62664 47.82517 -4.99426 -11.37851 -19.26251 -6.91139 -2.71138 -3.57045 48.96895 7.09296 6.87695 -24.18525 -7.79639 3.50457 3.9927
0.00767 -0.00355 -0.00056 175.37741 -43.87671 -0.02977 55.13556 1.4781 3.71346 3.77809 -1.39853 -0.78303 49.7658 -51.30673 -63.66869 5.69709 57.71245 7.16758 -8.08265 39.68553 50.62269 -50.0867 23.47289 -72.13575 -26.59775 1.33776 47.68652 -5.05268 -11.41464 -19.28972 -6.91724 -2.72716 -3.57804 48.89747 7.18216 7.45545 -24.20916 -7.74652 3.41923 3.94686
0.00913 -0.0035 -0.00091 175.87124 -43.68702 0.1102 54.48892 1.24258 3.4186 5.81828 -1.6633 -0.89004 47.65153 -45.45832 -36.50013 5.80983 66.17416 -4.73986 -7.01125 39.52061 44.06315 -51.62036 26.47751 -76.19699 -29.03989 1.89433 47.54599 -5.0935 -11.38831 -19.30295 -6.92876 -2.75051 -3.58937 48.83142 7.30586 8.15391 -24.22548 -7.68953 3.31706 3.89256
